<svg width="21" height="20" viewBox="0 0 21 20" fill="none" xmlns="http://www.w3.org/2000/svg">
<path d="M20.3126 10.2102C20.3126 9.44107 19.6891 8.81756 18.9199 8.81756H11.9566V1.85427C11.9566 1.08512 11.3331 0.461609 10.564 0.461609C9.79482 0.461609 9.1713 1.08512 9.1713 1.85427V8.81756H2.20801C1.43887 8.81756 0.815351 9.44107 0.815351 10.2102C0.815351 10.9794 1.43887 11.6029 2.20801 11.6029H9.1713V18.5662C9.1713 19.3353 9.79482 19.9588 10.564 19.9588C11.3331 19.9588 11.9566 19.3353 11.9566 18.5662V11.6029H18.9199C19.6891 11.6029 20.3126 10.9794 20.3126 10.2102Z" fill="white" style="fill:white;fill-opacity:1;"/>
</svg>
